<svg width="48" height="48" viewBox="0 0 48 48" fill="none" xmlns="http://www.w3.org/2000/svg">
<path d="M12 21C15.866 21 19 17.866 19 14C19 10.134 15.866 7 12 7C8.13401 7 5 10.134 5 14C5 17.866 8.13401 21 12 21Z" stroke="#009933" stroke-width="2" stroke-miterlimit="10"/>
<path d="M37 29C36.11 29 35.27 29.2 34.52 29.54C34.83 28.75 35 27.9 35 27C35 23.13 31.87 20 28 20C24.13 20 21 23.13 21 27C21 27.14 21.01 27.27 21.02 27.4C20.29 26.55 19.21 26 18 26C15.85 26 14.11 27.7 14.02 29.82C13.13 29.3 12.1 29 11 29C7.69 29 5 31.69 5 35C5 38.31 7.69 41 11 41H37C40.31 41 43 38.31 43 35C43 31.69 40.31 29 37 29Z" stroke="#F0F0F2" stroke-width="2" stroke-linecap="round" stroke-linejoin="round"/>
</svg>
