<svg width="48" height="48" viewBox="0 0 48 48" fill="none" xmlns="http://www.w3.org/2000/svg">
<path d="M38 26V22H35.82C35.51 20.18 34.8 18.5 33.77 17.05L35.91 14.91L33.08 12.08L30.94 14.22C29.5 13.19 27.82 12.48 25.99 12.17V9.98999H21.99V12.17C20.17 12.48 18.49 13.19 17.04 14.22L14.9 12.08L12.07 14.91L14.21 17.05C13.18 18.49 12.47 20.17 12.16 22H9.97998V26H12.16C12.47 27.82 13.18 29.5 14.21 30.95L12.07 33.09L14.9 35.92L17.04 33.78C18.48 34.81 20.16 35.52 21.99 35.83V39.01H25.99V35.83C27.81 35.52 29.49 34.81 30.94 33.78L33.08 35.92L35.91 33.09L33.77 30.95C34.8 29.51 35.51 27.83 35.82 26H38Z" stroke="#F0F0F2" stroke-width="2" stroke-miterlimit="10" stroke-linejoin="round"/>
<path d="M30 24.0001C30 21.3901 28.33 19.1701 26 18.3501V24.0001H22V18.3501C19.67 19.1701 18 21.3901 18 24.0001C18 26.6101 19.67 28.8301 22 29.6501V39.0001H26V29.6501C28.33 28.8301 30 26.6101 30 24.0001Z" stroke="#009933" stroke-width="2" stroke-miterlimit="10" stroke-linejoin="round"/>
</svg>
