<svg width="48" height="48" viewBox="0 0 48 48" fill="none" xmlns="http://www.w3.org/2000/svg">
<path d="M29 41.0001H19V28.1901L24 23.0601L29 28.1901V41.0001Z" stroke="#009933" stroke-width="2" stroke-linecap="round" stroke-linejoin="round"/>
<path d="M24 32C25.1046 32 26 31.1046 26 30C26 28.8954 25.1046 28 24 28C22.8954 28 22 28.8954 22 30C22 31.1046 22.8954 32 24 32Z" stroke="#009933" stroke-width="2" stroke-linecap="round" stroke-linejoin="round"/>
<path d="M10 17C12.2091 17 14 15.2091 14 13C14 10.7909 12.2091 9 10 9C7.79086 9 6 10.7909 6 13C6 15.2091 7.79086 17 10 17Z" stroke="#F0F0F2" stroke-width="2" stroke-linecap="round" stroke-linejoin="round"/>
<path d="M38 17C40.2091 17 42 15.2091 42 13C42 10.7909 40.2091 9 38 9C35.7909 9 34 10.7909 34 13C34 15.2091 35.7909 17 38 17Z" stroke="#F0F0F2" stroke-width="2" stroke-linecap="round" stroke-linejoin="round"/>
<path d="M24 17C26.2091 17 28 15.2091 28 13C28 10.7909 26.2091 9 24 9C21.7909 9 20 10.7909 20 13C20 15.2091 21.7909 17 24 17Z" stroke="#F0F0F2" stroke-width="2" stroke-linecap="round" stroke-linejoin="round"/>
<path d="M19.5 12.5V13.5H14.5V12.5H19.5Z" stroke="#F0F0F2"/>
<path d="M10.5 17.5V23.5H9.5V17.5H10.5Z" stroke="#F0F0F2"/>
<path d="M38.5 17.5V23.5H37.5V17.5H38.5Z" stroke="#F0F0F2"/>
<path d="M24.5 17.5V29.5H23.5V17.5H24.5Z" stroke="#F0F0F2"/>
<path d="M33.5 12.5V13.5H28.5V12.5H33.5Z" stroke="#F0F0F2"/>
</svg>
