<svg width="32" height="32" viewBox="0 0 32 32" fill="none" xmlns="http://www.w3.org/2000/svg">
<path d="M25.904 20.5711C25.5317 20.1988 25.0576 19.9451 24.5413 19.8418L21.358 19.2051C19.6135 18.8562 17.8025 19.0988 16.2113 19.8944L15.7881 20.106C14.197 20.9016 12.386 21.1441 10.6415 20.7952L8.06584 20.2801C7.19155 20.1052 6.28771 20.3789 5.65725 21.0093M10.6664 5.3335H21.3331L19.9997 6.66683V13.5623C19.9997 14.2695 20.2807 14.9478 20.7808 15.4479L27.4475 22.1145C29.1274 23.7945 27.9376 26.6668 25.5618 26.6668H6.43764C4.06189 26.6668 2.87211 23.7945 4.55202 22.1145L11.2187 15.4479C11.7188 14.9478 11.9997 14.2695 11.9997 13.5623V6.66683L10.6664 5.3335Z" stroke="#1E1D21" stroke-width="2" stroke-linecap="round" stroke-linejoin="round"/>
</svg>
