<svg width="32" height="32" viewBox="0 0 32 32" fill="none" xmlns="http://www.w3.org/2000/svg">
<path d="M14.6665 5.33317C14.6665 3.86041 15.8604 2.6665 17.3332 2.6665C18.8059 2.6665 19.9998 3.86041 19.9998 5.33317V6.6665C19.9998 7.40288 20.5968 7.99984 21.3332 7.99984H25.3332C26.0696 7.99984 26.6665 8.59679 26.6665 9.33317V13.3332C26.6665 14.0696 26.0696 14.6665 25.3332 14.6665H23.9998C22.5271 14.6665 21.3332 15.8604 21.3332 17.3332C21.3332 18.8059 22.5271 19.9998 23.9998 19.9998H25.3332C26.0696 19.9998 26.6665 20.5968 26.6665 21.3332V25.3332C26.6665 26.0696 26.0696 26.6665 25.3332 26.6665H21.3332C20.5968 26.6665 19.9998 26.0696 19.9998 25.3332V23.9998C19.9998 22.5271 18.8059 21.3332 17.3332 21.3332C15.8604 21.3332 14.6665 22.5271 14.6665 23.9998V25.3332C14.6665 26.0696 14.0696 26.6665 13.3332 26.6665H9.33317C8.59679 26.6665 7.99984 26.0696 7.99984 25.3332V21.3332C7.99984 20.5968 7.40288 19.9998 6.6665 19.9998H5.33317C3.86041 19.9998 2.6665 18.8059 2.6665 17.3332C2.6665 15.8604 3.86041 14.6665 5.33317 14.6665H6.6665C7.40288 14.6665 7.99984 14.0696 7.99984 13.3332V9.33317C7.99984 8.59679 8.59679 7.99984 9.33317 7.99984H13.3332C14.0696 7.99984 14.6665 7.40288 14.6665 6.6665V5.33317Z" stroke="#1E1D21" stroke-width="2" stroke-linecap="round" stroke-linejoin="round"/>
</svg>
