<svg width="32" height="32" viewBox="0 0 32 32" fill="none" xmlns="http://www.w3.org/2000/svg">
<path d="M22.6665 26.6668H29.3332V24.0002C29.3332 21.791 27.5423 20.0002 25.3332 20.0002C24.059 20.0002 22.924 20.5959 22.1915 21.524M22.6665 26.6668H9.33317M22.6665 26.6668V24.0002C22.6665 23.1252 22.4979 22.2896 22.1915 21.524M9.33317 26.6668H2.6665V24.0002C2.6665 21.791 4.45736 20.0002 6.6665 20.0002C7.94065 20.0002 9.07565 20.5959 9.80816 21.524M9.33317 26.6668V24.0002C9.33317 23.1252 9.50174 22.2896 9.80816 21.524M9.80816 21.524C10.7912 19.0682 13.1929 17.3335 15.9998 17.3335C18.8067 17.3335 21.2085 19.0682 22.1915 21.524M19.9998 9.3335C19.9998 11.5426 18.209 13.3335 15.9998 13.3335C13.7907 13.3335 11.9998 11.5426 11.9998 9.3335C11.9998 7.12436 13.7907 5.3335 15.9998 5.3335C18.209 5.3335 19.9998 7.12436 19.9998 9.3335ZM27.9998 13.3335C27.9998 14.8063 26.8059 16.0002 25.3332 16.0002C23.8604 16.0002 22.6665 14.8063 22.6665 13.3335C22.6665 11.8607 23.8604 10.6668 25.3332 10.6668C26.8059 10.6668 27.9998 11.8607 27.9998 13.3335ZM9.33317 13.3335C9.33317 14.8063 8.13926 16.0002 6.6665 16.0002C5.19374 16.0002 3.99984 14.8063 3.99984 13.3335C3.99984 11.8607 5.19374 10.6668 6.6665 10.6668C8.13926 10.6668 9.33317 11.8607 9.33317 13.3335Z" stroke="#1E1D21" stroke-width="2" stroke-linecap="round" stroke-linejoin="round"/>
</svg>
