<svg xmlns="http://www.w3.org/2000/svg" width="130" height="35.885" viewBox="0 0 130 35.885"><g transform="translate(-422 -1877)"><g transform="translate(422 1877)"><path d="M-300.446,281.691a8.255,8.255,0,0,0-4.678-1.441,8.254,8.254,0,0,0-2.988.564,8.325,8.325,0,0,1,3.224,1.825Z" transform="translate(325.267 -270.624)" fill="#093586"/><path d="M-322.968,284.976a6.805,6.805,0,0,0-4.365,6.341,6.8,6.8,0,0,0,5.042,6.56,9.858,9.858,0,0,1-2.762-6.843A9.845,9.845,0,0,1-322.968,284.976Z" transform="translate(335.295 -273.09)" fill="#093586"/><path d="M-326.038,260.123a17.942,17.942,0,0,0-17.943,17.943,17.942,17.942,0,0,0,17.943,17.942,17.943,17.943,0,0,0,17.944-17.942A17.943,17.943,0,0,0-326.038,260.123Zm9.434,24.712-.232.231a9.836,9.836,0,0,1-7,2.9,9.83,9.83,0,0,1-4.82-1.261c-.186.012-.371.025-.56.025a8.393,8.393,0,0,1-8.384-8.383,8.387,8.387,0,0,1,8.066-8.368,9.837,9.837,0,0,1,5.7-1.818,9.838,9.838,0,0,1,6.983,2.882l.013.012.005,0c.011.011.019.024.029.035a.8.8,0,0,1,.067.082c.014.021.024.042.036.064a.779.779,0,0,1,.038.072.79.79,0,0,1,.029.09c.005.018.013.034.017.053v.007a.806.806,0,0,1,.011.1c0,.02.006.041.006.061s0,.036-.005.054a.778.778,0,0,1-.053.244c0,.013-.013.024-.019.037a.757.757,0,0,1-.052.1c-.008.012-.019.023-.028.035a.776.776,0,0,1-.071.087l0,0c-.011.012-.025.02-.038.031a.771.771,0,0,1-.078.064c-.021.014-.043.024-.065.036a.782.782,0,0,1-.071.037.835.835,0,0,1-.087.028c-.019.005-.036.013-.055.018l-6.449,1.376a.818.818,0,0,1-.165.018.783.783,0,0,1-.561-.249l0,0a6.747,6.747,0,0,0-4.6-1.981,8.3,8.3,0,0,0-3.149,6.506,8.31,8.31,0,0,0,3.865,7.013,6.752,6.752,0,0,0,5.786-5.653s0-.009,0-.014a.849.849,0,0,1,.026-.1c.006-.019.01-.038.017-.056a.872.872,0,0,1,.039-.079c.011-.02.02-.041.033-.059s.031-.042.047-.062.031-.04.048-.058.037-.033.055-.049.039-.034.06-.049.043-.026.065-.038.044-.026.068-.037.045-.016.068-.024a.652.652,0,0,1,.079-.024c.022-.005.045-.007.067-.01s.06-.008.09-.009h4.342a.788.788,0,0,1,.308.062.8.8,0,0,1,.252.169.79.79,0,0,1,.232.561Z" transform="translate(343.981 -260.123)" fill="#093586"/><path d="M-306.373,308.148a8.291,8.291,0,0,0,2.156.293,8.257,8.257,0,0,0,5.65-2.213V302.4h-2.888A8.319,8.319,0,0,1-306.373,308.148Z" transform="translate(324.359 -282.181)" fill="#093586"/></g><g transform="translate(464.447 1886.73)"><path d="M-250.329,285.11a5.492,5.492,0,0,1,1.689-1.081,5.32,5.32,0,0,1,2.063-.4,5.358,5.358,0,0,1,2.091.416,5.658,5.658,0,0,1,1.754,1.149l1.753-2.773a8.73,8.73,0,0,0-2.607-1.448,8.965,8.965,0,0,0-2.991-.5,8.877,8.877,0,0,0-2.3.294,8.96,8.96,0,0,0-2.064.825,8.727,8.727,0,0,0-1.753,1.282,8.078,8.078,0,0,0-1.355,1.664,8.2,8.2,0,0,0-.871,1.958,7.591,7.591,0,0,0-.309,2.174,7.7,7.7,0,0,0,.309,2.185,8.12,8.12,0,0,0,.871,1.968,8.065,8.065,0,0,0,1.355,1.664,8.845,8.845,0,0,0,1.753,1.287,8.827,8.827,0,0,0,2.064.832,8.921,8.921,0,0,0,2.3.294,8.978,8.978,0,0,0,2.991-.5,8.721,8.721,0,0,0,2.607-1.448v-7.209h-5.113v3.046h1.876v2.412a5.842,5.842,0,0,1-1.133.4,5.206,5.206,0,0,1-1.227.144,5.328,5.328,0,0,1-2.063-.4,5.447,5.447,0,0,1-1.689-1.087,5.119,5.119,0,0,1-1.146-1.608,4.7,4.7,0,0,1-.42-1.974,4.64,4.64,0,0,1,.42-1.957A5.079,5.079,0,0,1-250.329,285.11Z" transform="translate(255.226 -280.468)" fill="#093586"/><rect width="6.851" height="3.098" transform="translate(18.123 6.765)" fill="#093586"/><path d="M-184.663,292.087l-6.064-9.637h-3.366v14.624h3.146v-9.626l6.065,9.626h3.367V282.45h-3.147Z" transform="translate(223.33 -281.502)" fill="#093586"/><path d="M-160.323,297.074h10.78v-2.927h-7.633v-2.916h5.166V288.3h-5.166v-2.927h7.633V282.45h-10.78Z" transform="translate(205.711 -281.502)" fill="#093586"/><path d="M-122.592,282.45l-3.026,4.722-3.038-4.722h-3.8l4.826,7.314-4.826,7.31h3.8l3.038-4.721,3.026,4.721h3.816l-4.825-7.31,4.825-7.314Z" transform="translate(191.169 -281.502)" fill="#093586"/><path d="M-98.461,282.45v2.927h4.727v11.7H-90.6v-11.7h4.716V282.45Z" transform="translate(173.434 -281.502)" fill="#093586"/></g></g></svg>