<?xml version="1.0" encoding="UTF-8"?>
<svg width="150px" height="30px" viewBox="0 0 150 30" version="1.1" xmlns="http://www.w3.org/2000/svg" xmlns:xlink="http://www.w3.org/1999/xlink">
    <!-- Generator: Sketch 48 (47235) - http://www.bohemiancoding.com/sketch -->
    <title>Group 3 Copy 2</title>
    <desc>Created with Sketch.</desc>
    <defs>
        <linearGradient x1="17.2329781%" y1="112.043436%" x2="74.8332304%" y2="31.1931433%" id="linearGradient-1">
            <stop stop-color="#53C1D9" offset="0%"></stop>
            <stop stop-color="#39A1C0" offset="53.4714415%"></stop>
            <stop stop-color="#115168" offset="100%"></stop>
        </linearGradient>
        <linearGradient x1="78.3925967%" y1="6.8822175%" x2="7.5036188%" y2="91.6741236%" id="linearGradient-2">
            <stop stop-color="#53C1D9" offset="0%"></stop>
            <stop stop-color="#39A1C0" offset="53.4714415%"></stop>
            <stop stop-color="#115168" offset="100%"></stop>
        </linearGradient>
        <linearGradient x1="62.6785886%" y1="23.0228356%" x2="12.3751946%" y2="89.6559592%" id="linearGradient-3">
            <stop stop-color="#53C1D9" offset="0%"></stop>
            <stop stop-color="#39A1C0" offset="53.4714415%"></stop>
            <stop stop-color="#115168" offset="100%"></stop>
        </linearGradient>
    </defs>
    <g id="Desktop-HD-Copy" stroke="none" stroke-width="1" fill="none" fill-rule="evenodd" transform="translate(-34.000000, -983.000000)">
        <g id="Group-3-Copy-2" transform="translate(34.000000, 983.000000)" fill-rule="nonzero">
            <path d="M3.4188216,28.5128341 C2.90021547,29.3856103 1.77227725,29.6727219 0.899501074,29.1541157 C0.0267249,28.6355096 -0.260386647,27.5075714 0.258219486,26.6347952 L15.3317489,1.26714813 C15.850355,0.394371959 16.9782933,0.107260412 17.8510694,0.625866545 C18.7238456,1.14447268 19.0109571,2.2724109 18.492351,3.14518707 L3.4188216,28.5128341 Z" id="Line" fill="url(#linearGradient-1)"></path>
            <path d="M71.4335275,28.5128341 C70.9149214,29.3856103 69.7869831,29.6727219 68.914207,29.1541157 C68.0414308,28.6355096 67.7543192,27.5075714 68.2729254,26.6347952 L83.3464548,1.26714813 C83.8650609,0.394371959 84.9929991,0.107260412 85.8657753,0.625866545 C86.7385515,1.14447268 87.025663,2.2724109 86.5070569,3.14518707 L71.4335275,28.5128341 Z" id="Line-Copy-4" fill="url(#linearGradient-1)"></path>
            <path d="M119.595292,28.5128341 C119.076686,29.3856103 117.948748,29.6727219 117.075972,29.1541157 C116.203195,28.6355096 115.916084,27.5075714 116.43469,26.6347952 L131.508219,1.26714813 C132.026826,0.394371959 133.154764,0.107260412 134.02754,0.625866545 C134.900316,1.14447268 135.187428,2.2724109 134.668822,3.14518707 L119.595292,28.5128341 Z" id="Line-Copy-8" fill="url(#linearGradient-1)"></path>
            <path d="M15.5511745,28.4116924 C15.0325684,29.2844686 13.9046302,29.5715801 13.031854,29.052974 C12.1590778,28.5343678 11.8719663,27.4064296 12.3905724,26.5336535 L27.2674308,1.05993131 C27.7860369,0.187155134 29.1400614,0.149800413 30.0128376,0.668406546 C30.5946883,1.01414397 31.7756675,3.02498367 33.5557751,6.70092567 C32.7794553,5.21301545 31.9160556,4.48892621 30.9655762,4.52865795 C29.9834224,4.67565141 29.2937195,5.28399483 29.0829257,5.63874529 C26.0758699,10.6994002 21.5652862,18.2903826 15.5511745,28.4116924 Z" id="Line-Copy" fill="url(#linearGradient-2)" transform="translate(22.844064, 14.820535) scale(-1, 1) translate(-22.844064, -14.820535) "></path>
            <path d="M83.5658804,28.4219282 C83.0472743,29.2947044 81.9193361,29.5818159 81.0465599,29.0632098 C80.1737837,28.5446037 79.8866722,27.4166654 80.4052783,26.5438893 L95.2769932,1.14585586 C95.7955994,0.273079681 97.1547673,0.160036225 98.0275434,0.678642357 C98.6093942,1.02437978 99.7903734,3.03521949 101.570481,6.71116148 C100.794161,5.22325126 99.9307615,4.49916202 98.980282,4.53889376 C97.9981282,4.68588722 97.3084254,5.29423064 97.0976316,5.6489811 C94.0905758,10.709636 89.5799921,18.3006184 83.5658804,28.4219282 Z" id="Line-Copy-5" fill="url(#linearGradient-2)" transform="translate(90.858770, 14.844538) scale(-1, 1) translate(-90.858770, -14.844538) "></path>
            <path d="M131.727645,28.4219282 C131.209039,29.2947044 130.081101,29.5818159 129.208325,29.0632098 C128.335548,28.5446037 128.048437,27.4166654 128.567043,26.5438893 L143.438758,1.14585586 C143.957364,0.273079681 145.316532,0.160036225 146.189308,0.678642357 C146.771159,1.02437978 147.952138,3.03521949 149.732246,6.71116148 C148.955926,5.22325126 148.092526,4.49916202 147.142047,4.53889376 C146.159893,4.68588722 145.47019,5.29423064 145.259396,5.6489811 C142.25234,10.709636 137.741757,18.3006184 131.727645,28.4219282 Z" id="Line-Copy-9" fill="url(#linearGradient-2)" transform="translate(139.020535, 14.844538) scale(-1, 1) translate(-139.020535, -14.844538) "></path>
            <path d="M30.3235508,28.4511767 C29.8049447,29.3239529 28.6770065,29.6110644 27.8042303,29.0924583 C26.9314541,28.5738522 26.6443426,27.4459139 27.1629487,26.5731378 L42.2364781,1.20549071 C42.7550842,0.332714532 44.3371509,0.131596299 45.2099271,0.650202432 C45.7917779,0.995939854 47.0203477,3.02455977 48.8956365,6.73606217 C47.7409933,5.25105049 46.6884319,4.52841052 45.7379524,4.56814226 C44.7557986,4.71513572 44.0660957,5.32347914 43.855302,5.6782296 C40.8482462,10.7388845 36.3376624,18.3298669 30.3235508,28.4511767 Z" id="Line-Copy-2" fill="url(#linearGradient-3)" transform="translate(37.900183, 14.859162) scale(-1, -1) translate(-37.900183, -14.859162) "></path>
            <path d="M45.7287419,28.4116924 C45.2101358,29.2844686 44.0821976,29.5715801 43.2094214,29.052974 C42.3366452,28.5343678 42.0495337,27.4064296 42.5681398,26.5336535 L57.4954411,1.17337698 C58.0140472,0.30060081 59.3176288,0.149800413 60.1904049,0.668406546 C60.7722557,1.01414397 61.9644605,3.03037649 63.7670192,6.71710412 C62.9682482,5.21840826 62.093623,4.48892621 61.1431435,4.52865795 C60.1609897,4.67565141 59.4712869,5.28399483 59.2604931,5.63874529 C56.2534373,10.6994002 51.7428536,18.2903826 45.7287419,28.4116924 Z" id="Line-Copy-3" fill="url(#linearGradient-2)" transform="translate(53.038470, 14.840627) scale(-1, 1) translate(-53.038470, -14.840627) "></path>
            <path d="M110.661765,27.7573529 C110.661765,28.6710593 109.921059,29.4117647 109.007353,29.4117647 C108.093647,29.4117647 107.352941,28.6710593 107.352941,27.7573529 L107.352941,2.02205882 C107.352941,1.10835244 108.093647,0.367647059 109.007353,0.367647059 C109.921059,0.367647059 110.661765,1.10835244 110.661765,2.02205882 L110.661765,27.7573529 Z" id="Line-2" fill="#52C0D9"></path>
        </g>
    </g>
</svg>