<svg width="24" height="24" viewBox="0 0 24 24" fill="none" xmlns="http://www.w3.org/2000/svg">
<path d="M15.7267 12.1022C14.3185 10.613 12.9799 9.07255 11.8499 7.36089C11.0502 6.12849 10.3374 4.74204 9.48558 3.88621C8.72065 3.09884 8.23388 2.26013 7.99049 1.4043C6.28679 1.88356 5.10464 2.29436 3.57478 3.86909C-7.08203 14.6868 8.35557 31.3926 20.2119 20.4038C21.0812 19.5993 20.7682 18.6236 21.2898 17.7507C19.6382 15.8679 17.4651 13.9337 15.7267 12.1022Z" fill="#DA8D60"/>
<path d="M20.213 20.4041C9.22589 29.1849 -6.07263 15.2349 3.57587 3.85232C3.73233 3.68116 3.90618 3.49288 4.08003 3.32171C6.28788 1.16501 8.73912 0.155132 11.1382 0.0010825C11.3816 -0.0160341 11.5728 0.172249 11.5902 0.394766C11.625 1.79833 12.5464 2.73974 13.9024 2.92803C14.111 2.96226 14.2327 3.15054 14.1805 3.35594C14.0415 3.80097 13.9893 4.28024 13.9893 4.77662C14.0415 7.29277 16.1624 9.36388 18.7179 9.381C19.2395 9.381 19.7436 9.31253 20.2304 9.15848C20.4216 9.09001 20.6302 9.20983 20.665 9.41523C20.9779 11.0927 22.5252 10.7846 23.2553 10.5449C23.464 10.4765 23.69 10.5963 23.7421 10.8017C25.1677 15.9196 20.213 20.4041 20.213 20.4041Z" fill="#F5B86C"/>
<path d="M12.7546 9.5866C12.7546 10.8532 11.7115 11.7091 10.425 11.7091C9.13854 11.7091 8.09546 10.8532 8.09546 9.5866C8.09546 8.31997 9.13854 7.29297 10.425 7.29297C11.7115 7.29297 12.7546 8.30285 12.7546 9.5866Z" fill="#6D420D"/>
<path d="M20.0733 15.1151C20.0733 16.0907 19.2736 16.8781 18.2827 16.8781C17.2918 16.8781 16.6138 16.2961 16.6138 15.3205C16.6138 14.3448 17.2918 13.335 18.2827 13.335C19.2736 13.335 20.0733 14.1394 20.0733 15.1151Z" fill="#6D420D"/>
<path d="M6.68745 12.9587C6.68745 13.7118 6.13114 14.1397 5.36622 14.1397C4.60129 14.1397 3.94067 13.7118 3.94067 12.9587C3.94067 12.2055 4.54914 11.6064 5.31406 11.6064C6.07899 11.6064 6.68745 12.2055 6.68745 12.9587Z" fill="#6D420D"/>
<path d="M10.8933 17.5449C10.8933 17.8872 10.6151 18.1611 10.2675 18.1611C9.91976 18.1611 9.6416 17.8872 9.6416 17.5449C9.6416 17.2026 9.91976 16.9287 10.2675 16.9287C10.6151 16.9287 10.8933 17.2026 10.8933 17.5449Z" fill="#6D420D"/>
<path d="M6.65193 5.71796C7.03598 5.71796 7.34732 5.41143 7.34732 5.0333C7.34732 4.65517 7.03598 4.34863 6.65193 4.34863C6.26788 4.34863 5.95654 4.65517 5.95654 5.0333C5.95654 5.41143 6.26788 5.71796 6.65193 5.71796Z" fill="#6D420D"/>
</svg>
