<svg width="606" height="144" viewBox="0 0 606 144" fill="none" xmlns="http://www.w3.org/2000/svg">
<path d="M0 143.052L68.1859 138.875V124.053L16.9911 127.185V104.248L63.503 101.4V88.2234L16.9911 91.0708V68.1175L68.1859 64.9854V50.1631L0 54.3393V143.052Z" fill="#1E1D21"/>
<path d="M79.3706 49.481V138.193L87.5972 137.687L95.5865 137.197V48.4844L87.5972 48.9748L79.3706 49.481Z" fill="#1E1D21"/>
<path d="M156.242 71.5158C151.385 68.5102 145.326 67.2447 138.049 67.6876C131.8 68.0673 126.279 69.839 121.501 73.0028C116.723 76.1665 113.053 80.406 110.474 85.7212C107.895 91.0363 106.614 97.0633 106.614 103.818C106.614 110.573 107.895 116.457 110.474 121.456C113.053 126.455 116.723 130.236 121.501 132.814C126.279 135.392 131.784 136.5 138.049 136.104C145.564 135.646 151.987 133.209 157.318 128.78C162.65 124.351 166.272 118.577 168.218 111.443L151.496 112.471C150.31 115.84 148.554 118.545 146.228 120.586C143.902 122.627 141.181 123.75 138.049 123.94C135.09 124.114 132.433 123.37 130.06 121.709C127.687 120.032 125.899 117.58 124.665 114.306C123.811 112.028 123.273 109.45 123.02 106.618L169.484 103.771C169.99 96.6362 169.12 90.2295 166.889 84.5347C164.643 78.8399 161.099 74.4897 156.242 71.5V71.5158ZM130.075 83.0636C132.433 81.102 135.106 80.0264 138.065 79.8523C141.102 79.6625 143.744 80.3269 145.991 81.8455C148.221 83.3641 149.962 85.5946 151.18 88.5686C151.844 90.1821 152.335 91.9696 152.699 93.9312L123.51 95.7187C123.811 94.121 124.19 92.5707 124.696 91.147C125.915 87.7302 127.718 85.0568 130.091 83.0794L130.075 83.0636Z" fill="#1E1D21"/>
<path d="M205.285 113.406L189.117 66.0755L171.62 67.1512L196.964 130.996L213.828 129.968L239.046 63.0225L221.691 64.0823L205.285 113.406Z" fill="#1E1D21"/>
<path d="M291.364 63.2443C286.507 60.2387 280.448 58.9732 273.17 59.4161C266.921 59.7958 261.4 61.5675 256.622 64.7313C251.845 67.8951 248.174 72.1345 245.596 77.4497C243.017 82.7648 241.735 88.7918 241.735 95.5623C241.735 102.333 243.017 108.202 245.596 113.2C248.174 118.199 251.845 121.98 256.622 124.558C261.4 127.137 266.906 128.244 273.17 127.849C280.685 127.39 287.108 124.954 292.44 120.525C297.755 116.095 301.394 110.321 303.34 103.187L286.618 104.215C285.431 107.585 283.675 110.29 281.365 112.33C279.04 114.371 276.319 115.494 273.186 115.684C270.228 115.858 267.57 115.114 265.197 113.453C262.824 111.777 261.036 109.325 259.802 106.05C258.948 103.772 258.41 101.194 258.157 98.3623L304.621 95.5149C305.128 88.3805 304.258 81.9739 302.027 76.2791C299.78 70.5843 296.237 66.2499 291.38 63.2443H291.364ZM265.197 74.7921C267.554 72.8306 270.228 71.7549 273.186 71.5809C276.224 71.391 278.866 72.0554 281.112 73.574C283.343 75.0768 285.083 77.3231 286.301 80.2813C286.966 81.8948 287.456 83.6823 287.82 85.6439L258.632 87.4314C258.932 85.8337 259.312 84.2834 259.818 82.8597C261.036 79.4429 262.84 76.7695 265.213 74.7921H265.197Z" fill="#1E1D21"/>
<path d="M314.905 123.782L331.374 122.769V57.374L314.905 58.3864V123.782Z" fill="#1E1D21"/>
<path d="M323.147 31.8884C320.268 32.0624 317.91 33.0748 316.044 34.9256C314.193 36.7764 313.259 39.0069 313.259 41.617C313.259 44.0689 314.193 46.1096 316.044 47.7231C317.91 49.3366 320.268 50.0643 323.147 49.8903C325.773 49.7321 328.051 48.7197 329.997 46.8689C331.943 45.0181 332.908 42.8667 332.908 40.4148C332.908 37.8046 331.959 35.6849 330.061 34.0714C328.162 32.4579 325.852 31.7302 323.147 31.8884Z" fill="#1E1D21"/>
<path d="M398.373 94.7716C401.031 90.4214 402.36 85.6757 402.36 80.5187C402.36 75.3618 401.031 70.7585 398.373 66.693C397.186 64.8739 395.778 63.2761 394.196 61.8524L401.727 53.943L392.978 45.6064L383.201 55.9836C379.658 55.0029 375.829 54.639 371.7 54.8921C366.036 55.2402 360.879 56.7429 356.228 59.3847C351.576 62.0423 347.953 65.5541 345.327 69.9359C342.701 74.3177 341.404 79.095 341.404 84.252C341.404 89.6621 342.669 94.3603 345.201 98.3308C347.732 102.317 351.292 105.339 355.848 107.379C360.404 109.42 365.688 110.258 371.7 109.894C374.911 109.705 377.585 109.894 379.752 110.48C381.904 111.065 383.533 112.062 384.625 113.47C385.733 114.877 386.27 116.649 386.27 118.753C386.27 120.604 385.717 122.391 384.625 124.116C383.533 125.824 381.904 127.232 379.752 128.339C377.601 129.447 375.038 130.079 372.08 130.269C369.295 130.443 366.843 130.064 364.723 129.13C362.603 128.197 360.989 126.868 359.85 125.112C358.711 123.372 358.142 121.395 358.142 119.196L341.91 120.193C341.91 125.096 343.176 129.383 345.707 133.069C348.238 136.755 351.782 139.523 356.354 141.358C360.926 143.193 366.115 143.937 371.937 143.573C377.68 143.225 382.885 141.928 387.52 139.697C392.171 137.467 395.794 134.588 398.42 131.044C401.031 127.501 402.344 123.53 402.344 119.148C402.344 115.004 401.047 111.35 398.484 108.17C396.649 105.908 394.276 104.041 391.38 102.57C394.181 100.356 396.506 97.7455 398.357 94.7399L398.373 94.7716ZM364.154 96.48C362.002 95.2145 360.372 93.4428 359.281 91.1332C358.189 88.8395 357.636 86.2135 357.636 83.2554C357.636 80.2973 358.221 77.7504 359.407 75.346C360.594 72.9573 362.287 71.0116 364.47 69.5246C366.669 68.0376 369.074 67.2151 371.7 67.0569C374.484 66.8829 376.952 67.4207 379.12 68.6388C381.271 69.8568 382.98 71.5969 384.245 73.8432C385.511 76.0895 386.144 78.6521 386.144 81.5153C386.144 84.3786 385.511 87.0678 384.245 89.5513C382.98 92.0349 381.271 94.0439 379.12 95.5625C376.968 97.0811 374.5 97.9353 371.7 98.1094C368.821 98.2834 366.305 97.7455 364.154 96.48Z" fill="#1E1D21"/>
<path d="M459.123 50.8276C455.785 49.1667 452.257 48.4548 448.539 48.6921C444.141 48.961 440.234 50.2107 436.817 52.457C434.349 54.0705 432.26 56.1112 430.536 58.5314V28.001L414.304 28.9976V117.71L430.536 116.713V74.0023C430.536 71.3922 431.026 69.1617 431.991 67.3268C432.956 65.4918 434.317 64.0681 436.041 63.024C437.766 61.9958 439.775 61.3947 442.053 61.2681C446.024 61.0308 448.982 61.9483 450.928 64.0206C452.874 66.0929 453.839 68.9561 453.839 72.5944V115.305L470.071 114.309V71.5979C470.071 66.5358 469.074 62.2172 467.097 58.658C465.103 55.0987 462.446 52.5044 459.108 50.8435L459.123 50.8276Z" fill="#1E1D21"/>
<path d="M504.655 32.3184L488.439 33.3149V47.7576L477.286 48.4378V60.6025L488.439 59.9223V95.151C488.439 98.8685 489.246 102.032 490.844 104.627C492.442 107.237 494.751 109.167 497.757 110.416C500.747 111.666 504.37 112.172 508.594 111.903L515.824 111.46V97.777L510.888 98.0775C508.768 98.2041 507.218 97.7295 506.205 96.6538C505.193 95.5781 504.687 93.933 504.687 91.75V58.9257L515.84 58.2455V46.0808L504.687 46.761V32.3184H504.655Z" fill="#1E1D21"/>
<path d="M565.769 2.46949L553.777 3.19716L538.131 57.2978L550.882 56.5226L553.983 45.2438L573.157 44.0732L576.242 54.9724L588.993 54.1973L573.347 2.01074L565.753 2.46949H565.769ZM556.973 34.4395L563.602 10.3473L570.199 33.6327L556.973 34.4395Z" fill="#1E1D21"/>
<path d="M593.707 0.759307V53.9108L605.999 53.1515V0L593.707 0.759307Z" fill="#1E1D21"/>
</svg>
